<mxfile host="Electron" agent="Mozilla/5.0 (Macintosh; Intel Mac OS X 10_15_7) AppleWebKit/537.36 (KHTML, like Gecko) draw.io/24.7.8 Chrome/128.0.6613.36 Electron/32.0.1 Safari/537.36" version="24.7.8">
  <diagram name="第 1 页" id="7My_zcyrMPkNygN9AO77">
    <mxGraphModel dx="1593" dy="949" grid="1" gridSize="10" guides="1" tooltips="1" connect="1" arrows="1" fold="1" page="1" pageScale="1" pageWidth="1169" pageHeight="827" math="0" shadow="0">
      <root>
        <mxCell id="0" />
        <mxCell id="1" parent="0" />
        <mxCell id="V-ziCVP5wANHMNJRJQL8-16" style="edgeStyle=orthogonalEdgeStyle;rounded=0;orthogonalLoop=1;jettySize=auto;html=1;exitX=1;exitY=0.5;exitDx=0;exitDy=0;" parent="1" source="V-ziCVP5wANHMNJRJQL8-1" edge="1">
          <mxGeometry relative="1" as="geometry">
            <mxPoint x="540" y="810" as="targetPoint" />
          </mxGeometry>
        </mxCell>
        <mxCell id="V-ziCVP5wANHMNJRJQL8-1" value="&lt;span style=&quot;font-size: 16px;&quot;&gt;&lt;b&gt;AND&lt;/b&gt;&lt;/span&gt;&lt;br&gt;&lt;div&gt;with NAND&lt;/div&gt;" style="rounded=1;whiteSpace=wrap;html=1;" parent="1" vertex="1">
          <mxGeometry x="260" y="780" width="120" height="60" as="geometry" />
        </mxCell>
        <mxCell id="i9FK7Ry-VT0S9GxnyoTn-12" style="edgeStyle=orthogonalEdgeStyle;rounded=0;orthogonalLoop=1;jettySize=auto;html=1;entryX=0;entryY=0.5;entryDx=0;entryDy=0;" parent="1" source="V-ziCVP5wANHMNJRJQL8-2" target="i9FK7Ry-VT0S9GxnyoTn-10" edge="1">
          <mxGeometry relative="1" as="geometry">
            <Array as="points">
              <mxPoint x="420" y="710" />
              <mxPoint x="420" y="680" />
            </Array>
          </mxGeometry>
        </mxCell>
        <mxCell id="V-ziCVP5wANHMNJRJQL8-2" value="&lt;span style=&quot;font-size: 16px;&quot;&gt;&lt;b&gt;AND&lt;/b&gt;&lt;/span&gt;&lt;br&gt;&lt;div&gt;with NAND&lt;/div&gt;" style="rounded=1;whiteSpace=wrap;html=1;" parent="1" vertex="1">
          <mxGeometry x="260" y="680" width="120" height="60" as="geometry" />
        </mxCell>
        <mxCell id="i9FK7Ry-VT0S9GxnyoTn-13" style="edgeStyle=orthogonalEdgeStyle;rounded=0;orthogonalLoop=1;jettySize=auto;html=1;exitX=1;exitY=0.5;exitDx=0;exitDy=0;entryX=0;entryY=0.25;entryDx=0;entryDy=0;" parent="1" source="V-ziCVP5wANHMNJRJQL8-3" target="i9FK7Ry-VT0S9GxnyoTn-10" edge="1">
          <mxGeometry relative="1" as="geometry">
            <Array as="points">
              <mxPoint x="420" y="640" />
              <mxPoint x="420" y="665" />
            </Array>
          </mxGeometry>
        </mxCell>
        <mxCell id="V-ziCVP5wANHMNJRJQL8-3" value="&lt;span style=&quot;font-size: 16px;&quot;&gt;&lt;b&gt;AND&lt;/b&gt;&lt;/span&gt;&lt;br&gt;&lt;div&gt;with NAND&lt;/div&gt;" style="rounded=1;whiteSpace=wrap;html=1;" parent="1" vertex="1">
          <mxGeometry x="260" y="610" width="120" height="60" as="geometry" />
        </mxCell>
        <mxCell id="i9FK7Ry-VT0S9GxnyoTn-22" style="edgeStyle=orthogonalEdgeStyle;rounded=0;orthogonalLoop=1;jettySize=auto;html=1;exitX=1;exitY=0.5;exitDx=0;exitDy=0;entryX=0;entryY=0.675;entryDx=0;entryDy=0;entryPerimeter=0;" parent="1" source="V-ziCVP5wANHMNJRJQL8-4" target="i9FK7Ry-VT0S9GxnyoTn-19" edge="1">
          <mxGeometry relative="1" as="geometry">
            <Array as="points">
              <mxPoint x="420" y="540" />
              <mxPoint x="420" y="490" />
            </Array>
          </mxGeometry>
        </mxCell>
        <mxCell id="V-ziCVP5wANHMNJRJQL8-4" value="&lt;span style=&quot;font-size: 16px;&quot;&gt;&lt;b&gt;AND&lt;/b&gt;&lt;/span&gt;&lt;br&gt;&lt;div&gt;with NAND&lt;/div&gt;" style="rounded=1;whiteSpace=wrap;html=1;" parent="1" vertex="1">
          <mxGeometry x="260" y="510" width="120" height="60" as="geometry" />
        </mxCell>
        <mxCell id="V-ziCVP5wANHMNJRJQL8-5" value="&lt;span style=&quot;font-size: 16px;&quot;&gt;&lt;b&gt;AND&lt;/b&gt;&lt;/span&gt;&lt;br&gt;&lt;div&gt;with NAND&lt;/div&gt;" style="rounded=1;whiteSpace=wrap;html=1;" parent="1" vertex="1">
          <mxGeometry x="260" y="440" width="120" height="60" as="geometry" />
        </mxCell>
        <mxCell id="i9FK7Ry-VT0S9GxnyoTn-20" style="edgeStyle=orthogonalEdgeStyle;rounded=0;orthogonalLoop=1;jettySize=auto;html=1;exitX=1;exitY=0.5;exitDx=0;exitDy=0;entryX=0;entryY=0.175;entryDx=0;entryDy=0;entryPerimeter=0;" parent="1" source="V-ziCVP5wANHMNJRJQL8-6" target="i9FK7Ry-VT0S9GxnyoTn-19" edge="1">
          <mxGeometry relative="1" as="geometry">
            <mxPoint x="530" y="460" as="targetPoint" />
            <Array as="points">
              <mxPoint x="420" y="400" />
              <mxPoint x="420" y="460" />
            </Array>
          </mxGeometry>
        </mxCell>
        <mxCell id="V-ziCVP5wANHMNJRJQL8-6" value="&lt;span style=&quot;font-size: 16px;&quot;&gt;&lt;b&gt;AND&lt;/b&gt;&lt;/span&gt;&lt;br&gt;&lt;div&gt;with NAND&lt;/div&gt;" style="rounded=1;whiteSpace=wrap;html=1;" parent="1" vertex="1">
          <mxGeometry x="260" y="370" width="120" height="60" as="geometry" />
        </mxCell>
        <mxCell id="V-ziCVP5wANHMNJRJQL8-7" value="&lt;span style=&quot;font-size: 16px;&quot;&gt;&lt;b&gt;AND&lt;/b&gt;&lt;/span&gt;&lt;br&gt;&lt;div&gt;with NAND&lt;/div&gt;" style="rounded=1;whiteSpace=wrap;html=1;" parent="1" vertex="1">
          <mxGeometry x="260" y="270" width="120" height="60" as="geometry" />
        </mxCell>
        <mxCell id="i9FK7Ry-VT0S9GxnyoTn-35" style="edgeStyle=orthogonalEdgeStyle;rounded=0;orthogonalLoop=1;jettySize=auto;html=1;exitX=1;exitY=0.5;exitDx=0;exitDy=0;entryX=0;entryY=0.5;entryDx=0;entryDy=0;" parent="1" source="V-ziCVP5wANHMNJRJQL8-8" target="i9FK7Ry-VT0S9GxnyoTn-34" edge="1">
          <mxGeometry relative="1" as="geometry" />
        </mxCell>
        <mxCell id="V-ziCVP5wANHMNJRJQL8-8" value="&lt;span style=&quot;font-size: 16px;&quot;&gt;&lt;b&gt;AND&lt;/b&gt;&lt;/span&gt;&lt;br&gt;&lt;div&gt;with NAND&lt;/div&gt;" style="rounded=1;whiteSpace=wrap;html=1;" parent="1" vertex="1">
          <mxGeometry x="260" y="200" width="120" height="60" as="geometry" />
        </mxCell>
        <mxCell id="V-ziCVP5wANHMNJRJQL8-9" value="&lt;span style=&quot;font-size: 16px;&quot;&gt;&lt;b&gt;AND&lt;/b&gt;&lt;/span&gt;&lt;br&gt;&lt;div&gt;with NAND&lt;/div&gt;" style="rounded=1;whiteSpace=wrap;html=1;" parent="1" vertex="1">
          <mxGeometry x="260" y="130" width="120" height="60" as="geometry" />
        </mxCell>
        <mxCell id="V-ziCVP5wANHMNJRJQL8-10" value="&lt;span style=&quot;font-size: 16px;&quot;&gt;&lt;b&gt;AND&lt;/b&gt;&lt;/span&gt;&lt;br&gt;&lt;div&gt;with NAND&lt;/div&gt;" style="rounded=1;whiteSpace=wrap;html=1;" parent="1" vertex="1">
          <mxGeometry x="260" y="60" width="120" height="60" as="geometry" />
        </mxCell>
        <mxCell id="V-ziCVP5wANHMNJRJQL8-11" value="" style="endArrow=classic;html=1;rounded=0;" parent="1" edge="1">
          <mxGeometry width="50" height="50" relative="1" as="geometry">
            <mxPoint x="80" y="820" as="sourcePoint" />
            <mxPoint x="260" y="820" as="targetPoint" />
          </mxGeometry>
        </mxCell>
        <mxCell id="V-ziCVP5wANHMNJRJQL8-12" value="" style="endArrow=classic;html=1;rounded=0;" parent="1" edge="1">
          <mxGeometry width="50" height="50" relative="1" as="geometry">
            <mxPoint x="80" y="720" as="sourcePoint" />
            <mxPoint x="260" y="720" as="targetPoint" />
          </mxGeometry>
        </mxCell>
        <mxCell id="V-ziCVP5wANHMNJRJQL8-13" value="" style="endArrow=classic;html=1;rounded=0;" parent="1" edge="1">
          <mxGeometry width="50" height="50" relative="1" as="geometry">
            <mxPoint x="80" y="550" as="sourcePoint" />
            <mxPoint x="260" y="550" as="targetPoint" />
          </mxGeometry>
        </mxCell>
        <mxCell id="V-ziCVP5wANHMNJRJQL8-14" value="" style="endArrow=classic;html=1;rounded=0;" parent="1" edge="1">
          <mxGeometry width="50" height="50" relative="1" as="geometry">
            <mxPoint x="80" y="310" as="sourcePoint" />
            <mxPoint x="260" y="310" as="targetPoint" />
          </mxGeometry>
        </mxCell>
        <mxCell id="i9FK7Ry-VT0S9GxnyoTn-87" style="edgeStyle=orthogonalEdgeStyle;rounded=0;orthogonalLoop=1;jettySize=auto;html=1;exitX=1;exitY=0.5;exitDx=0;exitDy=0;" parent="1" source="V-ziCVP5wANHMNJRJQL8-15" edge="1">
          <mxGeometry relative="1" as="geometry">
            <mxPoint x="700" y="820.0731707317075" as="targetPoint" />
          </mxGeometry>
        </mxCell>
        <mxCell id="V-ziCVP5wANHMNJRJQL8-15" value="&lt;span style=&quot;font-size: 16px;&quot;&gt;&lt;b&gt;OR&lt;/b&gt;&lt;/span&gt;&lt;br&gt;&lt;div&gt;with NAND&lt;/div&gt;" style="rounded=1;whiteSpace=wrap;html=1;" parent="1" vertex="1">
          <mxGeometry x="540" y="790" width="120" height="60" as="geometry" />
        </mxCell>
        <mxCell id="V-ziCVP5wANHMNJRJQL8-17" value="" style="endArrow=classic;html=1;rounded=0;edgeStyle=orthogonalEdgeStyle;" parent="1" edge="1">
          <mxGeometry width="50" height="50" relative="1" as="geometry">
            <mxPoint x="80" y="860" as="sourcePoint" />
            <mxPoint x="540" y="830" as="targetPoint" />
            <Array as="points">
              <mxPoint x="420" y="860" />
              <mxPoint x="420" y="830" />
            </Array>
          </mxGeometry>
        </mxCell>
        <mxCell id="V-ziCVP5wANHMNJRJQL8-18" value="" style="endArrow=classic;html=1;rounded=0;edgeStyle=orthogonalEdgeStyle;" parent="1" edge="1">
          <mxGeometry width="50" height="50" relative="1" as="geometry">
            <mxPoint x="80" y="880" as="sourcePoint" />
            <mxPoint x="260" y="70" as="targetPoint" />
            <Array as="points">
              <mxPoint x="240" y="880" />
              <mxPoint x="240" y="70" />
            </Array>
          </mxGeometry>
        </mxCell>
        <mxCell id="V-ziCVP5wANHMNJRJQL8-19" value="" style="endArrow=classic;html=1;rounded=0;" parent="1" edge="1">
          <mxGeometry width="50" height="50" relative="1" as="geometry">
            <mxPoint x="240" y="800" as="sourcePoint" />
            <mxPoint x="260" y="800" as="targetPoint" />
          </mxGeometry>
        </mxCell>
        <mxCell id="V-ziCVP5wANHMNJRJQL8-20" value="" style="endArrow=classic;html=1;rounded=0;" parent="1" edge="1">
          <mxGeometry width="50" height="50" relative="1" as="geometry">
            <mxPoint x="240" y="626" as="sourcePoint" />
            <mxPoint x="260" y="626" as="targetPoint" />
          </mxGeometry>
        </mxCell>
        <mxCell id="V-ziCVP5wANHMNJRJQL8-21" value="" style="endArrow=classic;html=1;rounded=0;" parent="1" edge="1">
          <mxGeometry width="50" height="50" relative="1" as="geometry">
            <mxPoint x="240" y="380" as="sourcePoint" />
            <mxPoint x="260" y="380" as="targetPoint" />
          </mxGeometry>
        </mxCell>
        <mxCell id="i9FK7Ry-VT0S9GxnyoTn-1" value="" style="shape=ellipse;fillColor=#000000;strokeColor=none;html=1;sketch=0;fontFamily=Helvetica;fontSize=11;fontColor=default;labelBackgroundColor=default;" parent="1" vertex="1">
          <mxGeometry x="237" y="796" width="7" height="7" as="geometry" />
        </mxCell>
        <mxCell id="i9FK7Ry-VT0S9GxnyoTn-2" value="" style="shape=ellipse;fillColor=#000000;strokeColor=none;html=1;sketch=0;fontFamily=Helvetica;fontSize=11;fontColor=default;labelBackgroundColor=default;" parent="1" vertex="1">
          <mxGeometry x="237" y="623" width="7" height="7" as="geometry" />
        </mxCell>
        <mxCell id="i9FK7Ry-VT0S9GxnyoTn-3" value="" style="shape=ellipse;fillColor=#000000;strokeColor=none;html=1;sketch=0;fontFamily=Helvetica;fontSize=11;fontColor=default;labelBackgroundColor=default;" parent="1" vertex="1">
          <mxGeometry x="237" y="376" width="7" height="7" as="geometry" />
        </mxCell>
        <mxCell id="i9FK7Ry-VT0S9GxnyoTn-5" value="" style="endArrow=classic;html=1;rounded=0;edgeStyle=orthogonalEdgeStyle;entryX=0;entryY=0.167;entryDx=0;entryDy=0;entryPerimeter=0;" parent="1" target="V-ziCVP5wANHMNJRJQL8-9" edge="1">
          <mxGeometry width="50" height="50" relative="1" as="geometry">
            <mxPoint x="220" y="860" as="sourcePoint" />
            <mxPoint x="210" y="776" as="targetPoint" />
            <Array as="points">
              <mxPoint x="220" y="140" />
            </Array>
          </mxGeometry>
        </mxCell>
        <mxCell id="i9FK7Ry-VT0S9GxnyoTn-6" value="" style="endArrow=classic;html=1;rounded=0;entryX=0;entryY=0.25;entryDx=0;entryDy=0;" parent="1" target="V-ziCVP5wANHMNJRJQL8-5" edge="1">
          <mxGeometry width="50" height="50" relative="1" as="geometry">
            <mxPoint x="220" y="455" as="sourcePoint" />
            <mxPoint x="264" y="453" as="targetPoint" />
          </mxGeometry>
        </mxCell>
        <mxCell id="i9FK7Ry-VT0S9GxnyoTn-7" value="" style="endArrow=classic;html=1;rounded=0;" parent="1" edge="1">
          <mxGeometry width="50" height="50" relative="1" as="geometry">
            <mxPoint x="220" y="700" as="sourcePoint" />
            <mxPoint x="260" y="700" as="targetPoint" />
          </mxGeometry>
        </mxCell>
        <mxCell id="i9FK7Ry-VT0S9GxnyoTn-8" value="" style="shape=ellipse;fillColor=#000000;strokeColor=none;html=1;sketch=0;fontFamily=Helvetica;fontSize=11;fontColor=default;labelBackgroundColor=default;" parent="1" vertex="1">
          <mxGeometry x="217" y="451" width="7" height="7" as="geometry" />
        </mxCell>
        <mxCell id="i9FK7Ry-VT0S9GxnyoTn-9" value="" style="shape=ellipse;fillColor=#000000;strokeColor=none;html=1;sketch=0;fontFamily=Helvetica;fontSize=11;fontColor=default;labelBackgroundColor=default;" parent="1" vertex="1">
          <mxGeometry x="217" y="696" width="7" height="7" as="geometry" />
        </mxCell>
        <mxCell id="i9FK7Ry-VT0S9GxnyoTn-88" style="edgeStyle=orthogonalEdgeStyle;rounded=0;orthogonalLoop=1;jettySize=auto;html=1;exitX=1;exitY=0.5;exitDx=0;exitDy=0;" parent="1" source="i9FK7Ry-VT0S9GxnyoTn-10" edge="1">
          <mxGeometry relative="1" as="geometry">
            <mxPoint x="700" y="680.0731707317075" as="targetPoint" />
          </mxGeometry>
        </mxCell>
        <mxCell id="i9FK7Ry-VT0S9GxnyoTn-10" value="&lt;span style=&quot;font-size: 16px;&quot;&gt;&lt;b&gt;OR&lt;/b&gt;&lt;/span&gt;&lt;br&gt;&lt;div&gt;with NAND&lt;/div&gt;" style="rounded=1;whiteSpace=wrap;html=1;" parent="1" vertex="1">
          <mxGeometry x="540" y="650" width="120" height="60" as="geometry" />
        </mxCell>
        <mxCell id="i9FK7Ry-VT0S9GxnyoTn-11" value="" style="endArrow=classic;html=1;rounded=0;edgeStyle=orthogonalEdgeStyle;entryX=0;entryY=0.75;entryDx=0;entryDy=0;" parent="1" target="i9FK7Ry-VT0S9GxnyoTn-10" edge="1">
          <mxGeometry width="50" height="50" relative="1" as="geometry">
            <mxPoint x="80" y="760" as="sourcePoint" />
            <mxPoint x="540" y="730" as="targetPoint" />
            <Array as="points">
              <mxPoint x="440" y="760" />
              <mxPoint x="440" y="695" />
            </Array>
          </mxGeometry>
        </mxCell>
        <mxCell id="i9FK7Ry-VT0S9GxnyoTn-14" value="" style="endArrow=classic;html=1;rounded=0;edgeStyle=orthogonalEdgeStyle;entryX=0;entryY=0.25;entryDx=0;entryDy=0;" parent="1" target="V-ziCVP5wANHMNJRJQL8-8" edge="1">
          <mxGeometry width="50" height="50" relative="1" as="geometry">
            <mxPoint x="200" y="760" as="sourcePoint" />
            <mxPoint x="190" y="42" as="targetPoint" />
            <Array as="points">
              <mxPoint x="200" y="215" />
            </Array>
          </mxGeometry>
        </mxCell>
        <mxCell id="i9FK7Ry-VT0S9GxnyoTn-15" value="" style="endArrow=classic;html=1;rounded=0;entryX=0;entryY=0.25;entryDx=0;entryDy=0;" parent="1" edge="1">
          <mxGeometry width="50" height="50" relative="1" as="geometry">
            <mxPoint x="200" y="530" as="sourcePoint" />
            <mxPoint x="260" y="530" as="targetPoint" />
          </mxGeometry>
        </mxCell>
        <mxCell id="i9FK7Ry-VT0S9GxnyoTn-16" value="" style="shape=ellipse;fillColor=#000000;strokeColor=none;html=1;sketch=0;fontFamily=Helvetica;fontSize=11;fontColor=default;labelBackgroundColor=default;" parent="1" vertex="1">
          <mxGeometry x="196" y="526" width="7" height="7" as="geometry" />
        </mxCell>
        <mxCell id="i9FK7Ry-VT0S9GxnyoTn-17" value="" style="shape=ellipse;fillColor=#000000;strokeColor=none;html=1;sketch=0;fontFamily=Helvetica;fontSize=11;fontColor=default;labelBackgroundColor=default;" parent="1" vertex="1">
          <mxGeometry x="197" y="756" width="7" height="7" as="geometry" />
        </mxCell>
        <mxCell id="i9FK7Ry-VT0S9GxnyoTn-18" value="" style="shape=ellipse;fillColor=#000000;strokeColor=none;html=1;sketch=0;fontFamily=Helvetica;fontSize=11;fontColor=default;labelBackgroundColor=default;" parent="1" vertex="1">
          <mxGeometry x="216" y="856" width="7" height="7" as="geometry" />
        </mxCell>
        <mxCell id="i9FK7Ry-VT0S9GxnyoTn-89" style="edgeStyle=orthogonalEdgeStyle;rounded=0;orthogonalLoop=1;jettySize=auto;html=1;exitX=1;exitY=0.5;exitDx=0;exitDy=0;" parent="1" source="i9FK7Ry-VT0S9GxnyoTn-19" edge="1">
          <mxGeometry relative="1" as="geometry">
            <mxPoint x="700" y="479.5853658536586" as="targetPoint" />
          </mxGeometry>
        </mxCell>
        <mxCell id="i9FK7Ry-VT0S9GxnyoTn-19" value="&lt;span style=&quot;font-size: 16px;&quot;&gt;&lt;b&gt;OR&lt;/b&gt;&lt;/span&gt;&lt;br&gt;&lt;div&gt;with NAND&lt;/div&gt;" style="rounded=1;whiteSpace=wrap;html=1;" parent="1" vertex="1">
          <mxGeometry x="540" y="449.5" width="120" height="60" as="geometry" />
        </mxCell>
        <mxCell id="i9FK7Ry-VT0S9GxnyoTn-21" style="edgeStyle=orthogonalEdgeStyle;rounded=0;orthogonalLoop=1;jettySize=auto;html=1;exitX=1;exitY=0.5;exitDx=0;exitDy=0;entryX=0;entryY=0.34;entryDx=0;entryDy=0;entryPerimeter=0;" parent="1" source="V-ziCVP5wANHMNJRJQL8-5" target="i9FK7Ry-VT0S9GxnyoTn-19" edge="1">
          <mxGeometry relative="1" as="geometry" />
        </mxCell>
        <mxCell id="i9FK7Ry-VT0S9GxnyoTn-24" value="" style="endArrow=classic;html=1;rounded=0;edgeStyle=orthogonalEdgeStyle;entryX=0;entryY=0.842;entryDx=0;entryDy=0;entryPerimeter=0;" parent="1" target="i9FK7Ry-VT0S9GxnyoTn-19" edge="1">
          <mxGeometry width="50" height="50" relative="1" as="geometry">
            <mxPoint x="80" y="590" as="sourcePoint" />
            <mxPoint x="540" y="560" as="targetPoint" />
            <Array as="points">
              <mxPoint x="440" y="590" />
              <mxPoint x="440" y="500" />
            </Array>
          </mxGeometry>
        </mxCell>
        <mxCell id="i9FK7Ry-VT0S9GxnyoTn-25" value="" style="endArrow=classic;html=1;rounded=0;edgeStyle=orthogonalEdgeStyle;entryX=0;entryY=0.333;entryDx=0;entryDy=0;entryPerimeter=0;" parent="1" target="V-ziCVP5wANHMNJRJQL8-7" edge="1">
          <mxGeometry width="50" height="50" relative="1" as="geometry">
            <mxPoint x="180" y="590" as="sourcePoint" />
            <mxPoint x="270" y="225" as="targetPoint" />
            <Array as="points">
              <mxPoint x="180" y="290" />
            </Array>
          </mxGeometry>
        </mxCell>
        <mxCell id="i9FK7Ry-VT0S9GxnyoTn-26" value="" style="shape=ellipse;fillColor=#000000;strokeColor=none;html=1;sketch=0;fontFamily=Helvetica;fontSize=11;fontColor=default;labelBackgroundColor=default;" parent="1" vertex="1">
          <mxGeometry x="176" y="587" width="7" height="7" as="geometry" />
        </mxCell>
        <mxCell id="i9FK7Ry-VT0S9GxnyoTn-90" style="edgeStyle=orthogonalEdgeStyle;rounded=0;orthogonalLoop=1;jettySize=auto;html=1;exitX=1;exitY=0.5;exitDx=0;exitDy=0;" parent="1" source="i9FK7Ry-VT0S9GxnyoTn-34" edge="1">
          <mxGeometry relative="1" as="geometry">
            <mxPoint x="700" y="229.82926829268297" as="targetPoint" />
          </mxGeometry>
        </mxCell>
        <mxCell id="i9FK7Ry-VT0S9GxnyoTn-34" value="&lt;span style=&quot;font-size: 16px;&quot;&gt;&lt;b&gt;OR&lt;/b&gt;&lt;/span&gt;&lt;br&gt;&lt;div&gt;with NAND&lt;/div&gt;" style="rounded=1;whiteSpace=wrap;html=1;" parent="1" vertex="1">
          <mxGeometry x="540" y="200" width="120" height="60" as="geometry" />
        </mxCell>
        <mxCell id="i9FK7Ry-VT0S9GxnyoTn-36" style="edgeStyle=orthogonalEdgeStyle;rounded=0;orthogonalLoop=1;jettySize=auto;html=1;exitX=1;exitY=0.5;exitDx=0;exitDy=0;entryX=0;entryY=0.333;entryDx=0;entryDy=0;entryPerimeter=0;" parent="1" source="V-ziCVP5wANHMNJRJQL8-9" target="i9FK7Ry-VT0S9GxnyoTn-34" edge="1">
          <mxGeometry relative="1" as="geometry">
            <Array as="points">
              <mxPoint x="420" y="160" />
              <mxPoint x="420" y="220" />
            </Array>
          </mxGeometry>
        </mxCell>
        <mxCell id="i9FK7Ry-VT0S9GxnyoTn-37" style="edgeStyle=orthogonalEdgeStyle;rounded=0;orthogonalLoop=1;jettySize=auto;html=1;exitX=1;exitY=0.5;exitDx=0;exitDy=0;entryX=0;entryY=0.167;entryDx=0;entryDy=0;entryPerimeter=0;" parent="1" source="V-ziCVP5wANHMNJRJQL8-10" target="i9FK7Ry-VT0S9GxnyoTn-34" edge="1">
          <mxGeometry relative="1" as="geometry">
            <Array as="points">
              <mxPoint x="440" y="90" />
              <mxPoint x="440" y="210" />
            </Array>
          </mxGeometry>
        </mxCell>
        <mxCell id="i9FK7Ry-VT0S9GxnyoTn-38" style="edgeStyle=orthogonalEdgeStyle;rounded=0;orthogonalLoop=1;jettySize=auto;html=1;exitX=1;exitY=0.5;exitDx=0;exitDy=0;entryX=0;entryY=0.667;entryDx=0;entryDy=0;entryPerimeter=0;" parent="1" source="V-ziCVP5wANHMNJRJQL8-7" target="i9FK7Ry-VT0S9GxnyoTn-34" edge="1">
          <mxGeometry relative="1" as="geometry">
            <Array as="points">
              <mxPoint x="420" y="300" />
              <mxPoint x="420" y="240" />
            </Array>
          </mxGeometry>
        </mxCell>
        <mxCell id="i9FK7Ry-VT0S9GxnyoTn-39" value="" style="endArrow=classic;html=1;rounded=0;edgeStyle=orthogonalEdgeStyle;" parent="1" edge="1">
          <mxGeometry width="50" height="50" relative="1" as="geometry">
            <mxPoint x="80" y="350" as="sourcePoint" />
            <mxPoint x="540" y="251" as="targetPoint" />
            <Array as="points">
              <mxPoint x="440" y="350" />
              <mxPoint x="440" y="250" />
              <mxPoint x="540" y="250" />
            </Array>
          </mxGeometry>
        </mxCell>
        <mxCell id="i9FK7Ry-VT0S9GxnyoTn-42" value="" style="endArrow=classic;html=1;rounded=0;edgeStyle=orthogonalEdgeStyle;entryX=0;entryY=0.833;entryDx=0;entryDy=0;entryPerimeter=0;" parent="1" target="V-ziCVP5wANHMNJRJQL8-10" edge="1">
          <mxGeometry width="50" height="50" relative="1" as="geometry">
            <mxPoint x="160" y="310" as="sourcePoint" />
            <mxPoint x="216" y="76" as="targetPoint" />
            <Array as="points">
              <mxPoint x="160" y="110" />
            </Array>
          </mxGeometry>
        </mxCell>
        <mxCell id="i9FK7Ry-VT0S9GxnyoTn-45" value="" style="endArrow=classic;html=1;rounded=0;" parent="1" edge="1">
          <mxGeometry width="50" height="50" relative="1" as="geometry">
            <mxPoint x="160" y="180" as="sourcePoint" />
            <mxPoint x="260" y="180" as="targetPoint" />
          </mxGeometry>
        </mxCell>
        <mxCell id="i9FK7Ry-VT0S9GxnyoTn-46" value="" style="endArrow=classic;html=1;rounded=0;entryX=0;entryY=0.75;entryDx=0;entryDy=0;" parent="1" target="V-ziCVP5wANHMNJRJQL8-8" edge="1">
          <mxGeometry width="50" height="50" relative="1" as="geometry">
            <mxPoint x="160" y="245" as="sourcePoint" />
            <mxPoint x="260" y="240" as="targetPoint" />
          </mxGeometry>
        </mxCell>
        <mxCell id="i9FK7Ry-VT0S9GxnyoTn-47" value="" style="shape=ellipse;fillColor=#000000;strokeColor=none;html=1;sketch=0;fontFamily=Helvetica;fontSize=11;fontColor=default;labelBackgroundColor=default;" parent="1" vertex="1">
          <mxGeometry x="157" y="306" width="7" height="7" as="geometry" />
        </mxCell>
        <mxCell id="i9FK7Ry-VT0S9GxnyoTn-48" value="" style="shape=ellipse;fillColor=#000000;strokeColor=none;html=1;sketch=0;fontFamily=Helvetica;fontSize=11;fontColor=default;labelBackgroundColor=default;" parent="1" vertex="1">
          <mxGeometry x="157" y="241" width="7" height="7" as="geometry" />
        </mxCell>
        <mxCell id="i9FK7Ry-VT0S9GxnyoTn-49" value="" style="shape=ellipse;fillColor=#000000;strokeColor=none;html=1;sketch=0;fontFamily=Helvetica;fontSize=11;fontColor=default;labelBackgroundColor=default;" parent="1" vertex="1">
          <mxGeometry x="157" y="176" width="7" height="7" as="geometry" />
        </mxCell>
        <mxCell id="i9FK7Ry-VT0S9GxnyoTn-50" value="" style="endArrow=classic;html=1;rounded=0;edgeStyle=orthogonalEdgeStyle;" parent="1" edge="1">
          <mxGeometry width="50" height="50" relative="1" as="geometry">
            <mxPoint x="140" y="550" as="sourcePoint" />
            <mxPoint x="260" y="100" as="targetPoint" />
            <Array as="points">
              <mxPoint x="140" y="100" />
            </Array>
          </mxGeometry>
        </mxCell>
        <mxCell id="i9FK7Ry-VT0S9GxnyoTn-51" value="" style="endArrow=classic;html=1;rounded=0;" parent="1" edge="1">
          <mxGeometry width="50" height="50" relative="1" as="geometry">
            <mxPoint x="140" y="170" as="sourcePoint" />
            <mxPoint x="260" y="170" as="targetPoint" />
          </mxGeometry>
        </mxCell>
        <mxCell id="i9FK7Ry-VT0S9GxnyoTn-52" value="" style="endArrow=classic;html=1;rounded=0;" parent="1" edge="1">
          <mxGeometry width="50" height="50" relative="1" as="geometry">
            <mxPoint x="140.5" y="229.71" as="sourcePoint" />
            <mxPoint x="260.5" y="229.71" as="targetPoint" />
          </mxGeometry>
        </mxCell>
        <mxCell id="i9FK7Ry-VT0S9GxnyoTn-53" value="" style="endArrow=classic;html=1;rounded=0;" parent="1" edge="1">
          <mxGeometry width="50" height="50" relative="1" as="geometry">
            <mxPoint x="140.5" y="420" as="sourcePoint" />
            <mxPoint x="260.5" y="420" as="targetPoint" />
          </mxGeometry>
        </mxCell>
        <mxCell id="i9FK7Ry-VT0S9GxnyoTn-54" value="" style="endArrow=classic;html=1;rounded=0;entryX=0;entryY=0.75;entryDx=0;entryDy=0;" parent="1" target="V-ziCVP5wANHMNJRJQL8-5" edge="1">
          <mxGeometry width="50" height="50" relative="1" as="geometry">
            <mxPoint x="140" y="485" as="sourcePoint" />
            <mxPoint x="263" y="490" as="targetPoint" />
          </mxGeometry>
        </mxCell>
        <mxCell id="i9FK7Ry-VT0S9GxnyoTn-55" value="" style="shape=ellipse;fillColor=#000000;strokeColor=none;html=1;sketch=0;fontFamily=Helvetica;fontSize=11;fontColor=default;labelBackgroundColor=default;" parent="1" vertex="1">
          <mxGeometry x="137" y="167" width="7" height="7" as="geometry" />
        </mxCell>
        <mxCell id="i9FK7Ry-VT0S9GxnyoTn-56" value="" style="shape=ellipse;fillColor=#000000;strokeColor=none;html=1;sketch=0;fontFamily=Helvetica;fontSize=11;fontColor=default;labelBackgroundColor=default;" parent="1" vertex="1">
          <mxGeometry x="136" y="226" width="7" height="7" as="geometry" />
        </mxCell>
        <mxCell id="i9FK7Ry-VT0S9GxnyoTn-57" value="" style="shape=ellipse;fillColor=#000000;strokeColor=none;html=1;sketch=0;fontFamily=Helvetica;fontSize=11;fontColor=default;labelBackgroundColor=default;fontStyle=1" parent="1" vertex="1">
          <mxGeometry x="137" y="417" width="7" height="7" as="geometry" />
        </mxCell>
        <mxCell id="i9FK7Ry-VT0S9GxnyoTn-58" value="" style="shape=ellipse;fillColor=#000000;strokeColor=none;html=1;sketch=0;fontFamily=Helvetica;fontSize=11;fontColor=default;labelBackgroundColor=default;" parent="1" vertex="1">
          <mxGeometry x="136" y="481" width="7" height="7" as="geometry" />
        </mxCell>
        <mxCell id="i9FK7Ry-VT0S9GxnyoTn-59" value="" style="shape=ellipse;fillColor=#000000;strokeColor=none;html=1;sketch=0;fontFamily=Helvetica;fontSize=11;fontColor=default;labelBackgroundColor=default;" parent="1" vertex="1">
          <mxGeometry x="137" y="547" width="7" height="7" as="geometry" />
        </mxCell>
        <mxCell id="i9FK7Ry-VT0S9GxnyoTn-60" value="c0" style="text;html=1;align=center;verticalAlign=middle;resizable=0;points=[];autosize=1;strokeColor=none;fillColor=none;" parent="1" vertex="1">
          <mxGeometry x="46" y="866" width="40" height="30" as="geometry" />
        </mxCell>
        <mxCell id="i9FK7Ry-VT0S9GxnyoTn-61" value="g[0]" style="text;html=1;align=center;verticalAlign=middle;resizable=0;points=[];autosize=1;strokeColor=none;fillColor=none;" parent="1" vertex="1">
          <mxGeometry x="46" y="844" width="40" height="30" as="geometry" />
        </mxCell>
        <mxCell id="i9FK7Ry-VT0S9GxnyoTn-62" value="p[0]" style="text;html=1;align=center;verticalAlign=middle;resizable=0;points=[];autosize=1;strokeColor=none;fillColor=none;" parent="1" vertex="1">
          <mxGeometry x="46" y="804.5" width="40" height="30" as="geometry" />
        </mxCell>
        <mxCell id="i9FK7Ry-VT0S9GxnyoTn-63" value="g[1]" style="text;html=1;align=center;verticalAlign=middle;resizable=0;points=[];autosize=1;strokeColor=none;fillColor=none;" parent="1" vertex="1">
          <mxGeometry x="46" y="744.5" width="40" height="30" as="geometry" />
        </mxCell>
        <mxCell id="i9FK7Ry-VT0S9GxnyoTn-64" value="p[1]" style="text;html=1;align=center;verticalAlign=middle;resizable=0;points=[];autosize=1;strokeColor=none;fillColor=none;" parent="1" vertex="1">
          <mxGeometry x="46" y="705" width="40" height="30" as="geometry" />
        </mxCell>
        <mxCell id="i9FK7Ry-VT0S9GxnyoTn-65" value="g[2]" style="text;html=1;align=center;verticalAlign=middle;resizable=0;points=[];autosize=1;strokeColor=none;fillColor=none;" parent="1" vertex="1">
          <mxGeometry x="46" y="575.5" width="40" height="30" as="geometry" />
        </mxCell>
        <mxCell id="i9FK7Ry-VT0S9GxnyoTn-66" value="p[2]" style="text;html=1;align=center;verticalAlign=middle;resizable=0;points=[];autosize=1;strokeColor=none;fillColor=none;" parent="1" vertex="1">
          <mxGeometry x="46" y="536" width="40" height="30" as="geometry" />
        </mxCell>
        <mxCell id="i9FK7Ry-VT0S9GxnyoTn-67" value="p[3]" style="text;html=1;align=center;verticalAlign=middle;resizable=0;points=[];autosize=1;strokeColor=none;fillColor=none;" parent="1" vertex="1">
          <mxGeometry x="46" y="295" width="40" height="30" as="geometry" />
        </mxCell>
        <mxCell id="i9FK7Ry-VT0S9GxnyoTn-68" value="g[3]" style="text;html=1;align=center;verticalAlign=middle;resizable=0;points=[];autosize=1;strokeColor=none;fillColor=none;" parent="1" vertex="1">
          <mxGeometry x="46" y="336" width="40" height="30" as="geometry" />
        </mxCell>
        <mxCell id="i9FK7Ry-VT0S9GxnyoTn-69" value="" style="endArrow=classic;html=1;rounded=0;edgeStyle=orthogonalEdgeStyle;entryX=0;entryY=0.5;entryDx=0;entryDy=0;" parent="1" target="V-ziCVP5wANHMNJRJQL8-10" edge="1">
          <mxGeometry width="50" height="50" relative="1" as="geometry">
            <mxPoint x="119.5" y="720" as="sourcePoint" />
            <mxPoint x="239.5" y="270" as="targetPoint" />
            <Array as="points">
              <mxPoint x="120" y="90" />
            </Array>
          </mxGeometry>
        </mxCell>
        <mxCell id="i9FK7Ry-VT0S9GxnyoTn-70" value="" style="endArrow=classic;html=1;rounded=0;" parent="1" edge="1">
          <mxGeometry width="50" height="50" relative="1" as="geometry">
            <mxPoint x="120" y="150" as="sourcePoint" />
            <mxPoint x="260" y="150" as="targetPoint" />
          </mxGeometry>
        </mxCell>
        <mxCell id="i9FK7Ry-VT0S9GxnyoTn-71" value="" style="shape=ellipse;fillColor=#000000;strokeColor=none;html=1;sketch=0;fontFamily=Helvetica;fontSize=11;fontColor=default;labelBackgroundColor=default;" parent="1" vertex="1">
          <mxGeometry x="116" y="146" width="7" height="7" as="geometry" />
        </mxCell>
        <mxCell id="i9FK7Ry-VT0S9GxnyoTn-72" value="" style="endArrow=classic;html=1;rounded=0;" parent="1" edge="1">
          <mxGeometry width="50" height="50" relative="1" as="geometry">
            <mxPoint x="120" y="410" as="sourcePoint" />
            <mxPoint x="260" y="410" as="targetPoint" />
          </mxGeometry>
        </mxCell>
        <mxCell id="i9FK7Ry-VT0S9GxnyoTn-74" value="" style="endArrow=classic;html=1;rounded=0;" parent="1" edge="1">
          <mxGeometry width="50" height="50" relative="1" as="geometry">
            <mxPoint x="120" y="469.8" as="sourcePoint" />
            <mxPoint x="260" y="469.8" as="targetPoint" />
          </mxGeometry>
        </mxCell>
        <mxCell id="i9FK7Ry-VT0S9GxnyoTn-75" value="" style="shape=ellipse;fillColor=#000000;strokeColor=none;html=1;sketch=0;fontFamily=Helvetica;fontSize=11;fontColor=default;labelBackgroundColor=default;" parent="1" vertex="1">
          <mxGeometry x="116" y="466" width="7" height="7" as="geometry" />
        </mxCell>
        <mxCell id="i9FK7Ry-VT0S9GxnyoTn-76" value="" style="shape=ellipse;fillColor=#000000;strokeColor=none;html=1;sketch=0;fontFamily=Helvetica;fontSize=11;fontColor=default;labelBackgroundColor=default;" parent="1" vertex="1">
          <mxGeometry x="116" y="406" width="7" height="7" as="geometry" />
        </mxCell>
        <mxCell id="i9FK7Ry-VT0S9GxnyoTn-77" value="" style="shape=ellipse;fillColor=#000000;strokeColor=none;html=1;sketch=0;fontFamily=Helvetica;fontSize=11;fontColor=default;labelBackgroundColor=default;" parent="1" vertex="1">
          <mxGeometry x="116" y="716" width="7" height="7" as="geometry" />
        </mxCell>
        <mxCell id="i9FK7Ry-VT0S9GxnyoTn-78" value="" style="endArrow=classic;html=1;rounded=0;edgeStyle=orthogonalEdgeStyle;entryX=0;entryY=0.333;entryDx=0;entryDy=0;entryPerimeter=0;" parent="1" target="V-ziCVP5wANHMNJRJQL8-10" edge="1">
          <mxGeometry width="50" height="50" relative="1" as="geometry">
            <mxPoint x="100" y="820" as="sourcePoint" />
            <mxPoint x="240.5" y="190" as="targetPoint" />
            <Array as="points">
              <mxPoint x="100" y="80" />
            </Array>
          </mxGeometry>
        </mxCell>
        <mxCell id="i9FK7Ry-VT0S9GxnyoTn-79" value="" style="endArrow=classic;html=1;rounded=0;" parent="1" edge="1">
          <mxGeometry width="50" height="50" relative="1" as="geometry">
            <mxPoint x="100" y="390" as="sourcePoint" />
            <mxPoint x="260" y="390" as="targetPoint" />
          </mxGeometry>
        </mxCell>
        <mxCell id="i9FK7Ry-VT0S9GxnyoTn-80" value="" style="endArrow=classic;html=1;rounded=0;" parent="1" edge="1">
          <mxGeometry width="50" height="50" relative="1" as="geometry">
            <mxPoint x="100" y="640" as="sourcePoint" />
            <mxPoint x="260" y="639.67" as="targetPoint" />
          </mxGeometry>
        </mxCell>
        <mxCell id="i9FK7Ry-VT0S9GxnyoTn-81" value="" style="endArrow=classic;html=1;rounded=0;entryX=0;entryY=0.75;entryDx=0;entryDy=0;" parent="1" target="V-ziCVP5wANHMNJRJQL8-3" edge="1">
          <mxGeometry width="50" height="50" relative="1" as="geometry">
            <mxPoint x="120" y="655" as="sourcePoint" />
            <mxPoint x="260" y="650" as="targetPoint" />
          </mxGeometry>
        </mxCell>
        <mxCell id="i9FK7Ry-VT0S9GxnyoTn-82" value="" style="shape=ellipse;fillColor=#000000;strokeColor=none;html=1;sketch=0;fontFamily=Helvetica;fontSize=11;fontColor=default;labelBackgroundColor=default;" parent="1" vertex="1">
          <mxGeometry x="116" y="651" width="7" height="7" as="geometry" />
        </mxCell>
        <mxCell id="i9FK7Ry-VT0S9GxnyoTn-83" value="" style="shape=ellipse;fillColor=#000000;strokeColor=none;html=1;sketch=0;fontFamily=Helvetica;fontSize=11;fontColor=default;labelBackgroundColor=default;" parent="1" vertex="1">
          <mxGeometry x="96" y="637" width="7" height="7" as="geometry" />
        </mxCell>
        <mxCell id="i9FK7Ry-VT0S9GxnyoTn-84" value="" style="shape=ellipse;fillColor=#000000;strokeColor=none;html=1;sketch=0;fontFamily=Helvetica;fontSize=11;fontColor=default;labelBackgroundColor=default;" parent="1" vertex="1">
          <mxGeometry x="97" y="386" width="7" height="7" as="geometry" />
        </mxCell>
        <mxCell id="i9FK7Ry-VT0S9GxnyoTn-86" value="" style="shape=ellipse;fillColor=#000000;strokeColor=none;html=1;sketch=0;fontFamily=Helvetica;fontSize=11;fontColor=default;labelBackgroundColor=default;" parent="1" vertex="1">
          <mxGeometry x="96" y="816" width="7" height="7" as="geometry" />
        </mxCell>
        <mxCell id="i9FK7Ry-VT0S9GxnyoTn-91" value="c[3]" style="text;html=1;align=center;verticalAlign=middle;resizable=0;points=[];autosize=1;strokeColor=none;fillColor=none;" parent="1" vertex="1">
          <mxGeometry x="694" y="214" width="40" height="30" as="geometry" />
        </mxCell>
        <mxCell id="i9FK7Ry-VT0S9GxnyoTn-92" value="c[2]" style="text;html=1;align=center;verticalAlign=middle;resizable=0;points=[];autosize=1;strokeColor=none;fillColor=none;" parent="1" vertex="1">
          <mxGeometry x="694" y="463.5" width="40" height="30" as="geometry" />
        </mxCell>
        <mxCell id="i9FK7Ry-VT0S9GxnyoTn-93" value="c[1]" style="text;html=1;align=center;verticalAlign=middle;resizable=0;points=[];autosize=1;strokeColor=none;fillColor=none;" parent="1" vertex="1">
          <mxGeometry x="694" y="664" width="40" height="30" as="geometry" />
        </mxCell>
        <mxCell id="i9FK7Ry-VT0S9GxnyoTn-94" value="c[0]" style="text;html=1;align=center;verticalAlign=middle;resizable=0;points=[];autosize=1;strokeColor=none;fillColor=none;" parent="1" vertex="1">
          <mxGeometry x="694" y="805" width="40" height="30" as="geometry" />
        </mxCell>
        <mxCell id="DTpgtTUkMBl5S_0WbIt8-1" value="&lt;span style=&quot;color: rgba(0, 0, 0, 0); font-family: monospace; font-size: 0px; text-align: start; text-wrap: nowrap; background-color: rgb(251, 251, 251);&quot;&gt;%3CmxGraphModel%3E%3Croot%3E%3CmxCell%20id%3D%220%22%2F%3E%3CmxCell%20id%3D%221%22%20parent%3D%220%22%2F%3E%3CmxCell%20id%3D%222%22%20value%3D%22%22%20style%3D%22group%22%20vertex%3D%221%22%20connectable%3D%220%22%20parent%3D%221%22%3E%3CmxGeometry%20x%3D%2240%22%20y%3D%2240%22%20width%3D%22655%22%20height%3D%22660%22%20as%3D%22geometry%22%2F%3E%3C%2FmxCell%3E%3CmxCell%20id%3D%223%22%20style%3D%22edgeStyle%3DorthogonalEdgeStyle%3Bshape%3Dconnector%3Brounded%3D0%3BorthogonalLoop%3D1%3BjettySize%3Dauto%3Bhtml%3D1%3BexitX%3D0%3BexitY%3D0.75%3BexitDx%3D0%3BexitDy%3D0%3BexitPerimeter%3D0%3BstrokeColor%3Ddefault%3Balign%3Dcenter%3BverticalAlign%3Dmiddle%3BfontFamily%3DHelvetica%3BfontSize%3D11%3BfontColor%3Ddefault%3BlabelBackgroundColor%3Ddefault%3BendArrow%3Dnone%3BendFill%3D0%3B%22%20edge%3D%221%22%20parent%3D%222%22%20source%3D%224%22%3E%3CmxGeometry%20relative%3D%221%22%20as%3D%22geometry%22%3E%3CmxPoint%20x%3D%22465%22%20y%3D%2270%22%20as%3D%22targetPoint%22%2F%3E%3C%2FmxGeometry%3E%3C%2FmxCell%3E%3CmxCell%20id%3D%224%22%20value%3D%22%26lt%3Bp%20style%3D%26quot%3Bline-height%3A%20110%25%3B%26quot%3B%26gt%3B%26lt%3Bbr%26gt%3B%26lt%3B%2Fp%26gt%3B%22%20style%3D%22verticalLabelPosition%3Dbottom%3Bshadow%3D0%3Bdashed%3D0%3Balign%3Dcenter%3Bhtml%3D1%3BverticalAlign%3Dtop%3Bshape%3Dmxgraph.electrical.logic_gates.logic_gate%3Boperation%3Dand%3BspacingTop%3D-20%3B%22%20vertex%3D%221%22%20parent%3D%222%22%3E%3CmxGeometry%20x%3D%22485%22%20y%3D%2224%22%20width%3D%22100%22%20height%3D%2260%22%20as%3D%22geometry%22%2F%3E%3C%2FmxCell%3E%3CmxCell%20id%3D%225%22%20style%3D%22edgeStyle%3DorthogonalEdgeStyle%3Bshape%3Dconnector%3Brounded%3D0%3BorthogonalLoop%3D1%3BjettySize%3Dauto%3Bhtml%3D1%3BexitX%3D0%3BexitY%3D0.25%3BexitDx%3D0%3BexitDy%3D0%3BexitPerimeter%3D0%3BstrokeColor%3Ddefault%3Balign%3Dcenter%3BverticalAlign%3Dmiddle%3BfontFamily%3DHelvetica%3BfontSize%3D11%3BfontColor%3Ddefault%3BlabelBackgroundColor%3Ddefault%3BendArrow%3Dnone%3BendFill%3D0%3B%22%20edge%3D%221%22%20parent%3D%222%22%20source%3D%227%22%3E%3CmxGeometry%20relative%3D%221%22%20as%3D%22geometry%22%3E%3CmxPoint%20x%3D%2285%22%20y%3D%22109%22%20as%3D%22targetPoint%22%2F%3E%3C%2FmxGeometry%3E%3C%2FmxCell%3E%3CmxCell%20id%3D%226%22%20style%3D%22edgeStyle%3DorthogonalEdgeStyle%3Bshape%3Dconnector%3Brounded%3D0%3BorthogonalLoop%3D1%3BjettySize%3Dauto%3Bhtml%3D1%3BexitX%3D0%3BexitY%3D0.75%3BexitDx%3D0%3BexitDy%3D0%3BexitPerimeter%3D0%3BstrokeColor%3Ddefault%3Balign%3Dcenter%3BverticalAlign%3Dmiddle%3BfontFamily%3DHelvetica%3BfontSize%3D11%3BfontColor%3Ddefault%3BlabelBackgroundColor%3Ddefault%3BendArrow%3Dnone%3BendFill%3D0%3B%22%20edge%3D%221%22%20parent%3D%222%22%20source%3D%227%22%3E%3CmxGeometry%20relative%3D%221%22%20as%3D%22geometry%22%3E%3CmxPoint%20x%3D%22465%22%20y%3D%22138.83333333333337%22%20as%3D%22targetPoint%22%2F%3E%3C%2FmxGeometry%3E%3C%2FmxCell%3E%3CmxCell%20id%3D%227%22%20value%3D%22%26lt%3Bp%20style%3D%26quot%3Bline-height%3A%20110%25%3B%26quot%3B%26gt%3B%26lt%3Bbr%26gt%3B%26lt%3B%2Fp%26gt%3B%22%20style%3D%22verticalLabelPosition%3Dbottom%3Bshadow%3D0%3Bdashed%3D0%3Balign%3Dcenter%3Bhtml%3D1%3BverticalAlign%3Dtop%3Bshape%3Dmxgraph.electrical.logic_gates.logic_gate%3Boperation%3Dand%3BspacingTop%3D-20%3B%22%20vertex%3D%221%22%20parent%3D%222%22%3E%3CmxGeometry%20x%3D%22485%22%20y%3D%2294%22%20width%3D%22100%22%20height%3D%2260%22%20as%3D%22geometry%22%2F%3E%3C%2FmxCell%3E%3CmxCell%20id%3D%228%22%20style%3D%22edgeStyle%3DorthogonalEdgeStyle%3Bshape%3Dconnector%3Brounded%3D0%3BorthogonalLoop%3D1%3BjettySize%3Dauto%3Bhtml%3D1%3BexitX%3D0%3BexitY%3D0.25%3BexitDx%3D0%3BexitDy%3D0%3BexitPerimeter%3D0%3BstrokeColor%3Ddefault%3Balign%3Dcenter%3BverticalAlign%3Dmiddle%3BfontFamily%3DHelvetica%3BfontSize%3D11%3BfontColor%3Ddefault%3BlabelBackgroundColor%3Ddefault%3BendArrow%3Dnone%3BendFill%3D0%3B%22%20edge%3D%221%22%20parent%3D%222%22%20source%3D%2210%22%3E%3CmxGeometry%20relative%3D%221%22%20as%3D%22geometry%22%3E%3CmxPoint%20x%3D%2285%22%20y%3D%22179%22%20as%3D%22targetPoint%22%2F%3E%3C%2FmxGeometry%3E%3C%2FmxCell%3E%3CmxCell%20id%3D%229%22%20style%3D%22edgeStyle%3DorthogonalEdgeStyle%3Bshape%3Dconnector%3Brounded%3D0%3BorthogonalLoop%3D1%3BjettySize%3Dauto%3Bhtml%3D1%3BexitX%3D0%3BexitY%3D0.75%3BexitDx%3D0%3BexitDy%3D0%3BexitPerimeter%3D0%3BstrokeColor%3Ddefault%3Balign%3Dcenter%3BverticalAlign%3Dmiddle%3BfontFamily%3DHelvetica%3BfontSize%3D11%3BfontColor%3Ddefault%3BlabelBackgroundColor%3Ddefault%3BendArrow%3Dnone%3BendFill%3D0%3B%22%20edge%3D%221%22%20parent%3D%222%22%20source%3D%2210%22%3E%3CmxGeometry%20relative%3D%221%22%20as%3D%22geometry%22%3E%3CmxPoint%20x%3D%22465%22%20y%3D%22209.9999999999999%22%20as%3D%22targetPoint%22%2F%3E%3C%2FmxGeometry%3E%3C%2FmxCell%3E%3CmxCell%20id%3D%2210%22%20value%3D%22%26lt%3Bp%20style%3D%26quot%3Bline-height%3A%20110%25%3B%26quot%3B%26gt%3B%26lt%3Bbr%26gt%3B%26lt%3B%2Fp%26gt%3B%22%20style%3D%22verticalLabelPosition%3Dbottom%3Bshadow%3D0%3Bdashed%3D0%3Balign%3Dcenter%3Bhtml%3D1%3BverticalAlign%3Dtop%3Bshape%3Dmxgraph.electrical.logic_gates.logic_gate%3Boperation%3Dand%3BspacingTop%3D-20%3B%22%20vertex%3D%221%22%20parent%3D%222%22%3E%3CmxGeometry%20x%3D%22485%22%20y%3D%22164%22%20width%3D%22100%22%20height%3D%2260%22%20as%3D%22geometry%22%2F%3E%3C%2FmxCell%3E%3CmxCell%20id%3D%2211%22%20style%3D%22edgeStyle%3DorthogonalEdgeStyle%3Bshape%3Dconnector%3Brounded%3D0%3BorthogonalLoop%3D1%3BjettySize%3Dauto%3Bhtml%3D1%3BexitX%3D0%3BexitY%3D0.25%3BexitDx%3D0%3BexitDy%3D0%3BexitPerimeter%3D0%3BstrokeColor%3Ddefault%3Balign%3Dcenter%3BverticalAlign%3Dmiddle%3BfontFamily%3DHelvetica%3BfontSize%3D11%3BfontColor%3Ddefault%3BlabelBackgroundColor%3Ddefault%3BendArrow%3Dnone%3BendFill%3D0%3B%22%20edge%3D%221%22%20parent%3D%222%22%20source%3D%2213%22%3E%3CmxGeometry%20relative%3D%221%22%20as%3D%22geometry%22%3E%3CmxPoint%20x%3D%2285%22%20y%3D%22249%22%20as%3D%22targetPoint%22%2F%3E%3C%2FmxGeometry%3E%3C%2FmxCell%3E%3CmxCell%20id%3D%2212%22%20style%3D%22edgeStyle%3DorthogonalEdgeStyle%3Bshape%3Dconnector%3Brounded%3D0%3BorthogonalLoop%3D1%3BjettySize%3Dauto%3Bhtml%3D1%3BexitX%3D0%3BexitY%3D0.75%3BexitDx%3D0%3BexitDy%3D0%3BexitPerimeter%3D0%3BstrokeColor%3Ddefault%3Balign%3Dcenter%3BverticalAlign%3Dmiddle%3BfontFamily%3DHelvetica%3BfontSize%3D11%3BfontColor%3Ddefault%3BlabelBackgroundColor%3Ddefault%3BendArrow%3Dnone%3BendFill%3D0%3B%22%20edge%3D%221%22%20parent%3D%222%22%20source%3D%2213%22%3E%3CmxGeometry%20relative%3D%221%22%20as%3D%22geometry%22%3E%3CmxPoint%20x%3D%22465%22%20y%3D%22278.8333333333335%22%20as%3D%22targetPoint%22%2F%3E%3C%2FmxGeometry%3E%3C%2FmxCell%3E%3CmxCell%20id%3D%2213%22%20value%3D%22%26lt%3Bp%20style%3D%26quot%3Bline-height%3A%20110%25%3B%26quot%3B%26gt%3B%26lt%3Bbr%26gt%3B%26lt%3B%2Fp%26gt%3B%22%20style%3D%22verticalLabelPosition%3Dbottom%3Bshadow%3D0%3Bdashed%3D0%3Balign%3Dcenter%3Bhtml%3D1%3BverticalAlign%3Dtop%3Bshape%3Dmxgraph.electrical.logic_gates.logic_gate%3Boperation%3Dand%3BspacingTop%3D-20%3B%22%20vertex%3D%221%22%20parent%3D%222%22%3E%3CmxGeometry%20x%3D%22485%22%20y%3D%22234%22%20width%3D%22100%22%20height%3D%2260%22%20as%3D%22geometry%22%2F%3E%3C%2FmxCell%3E%3CmxCell%20id%3D%2214%22%20style%3D%22edgeStyle%3DorthogonalEdgeStyle%3Brounded%3D0%3BorthogonalLoop%3D1%3BjettySize%3Dauto%3Bhtml%3D1%3BexitX%3D0%3BexitY%3D0.25%3BexitDx%3D0%3BexitDy%3D0%3BexitPerimeter%3D0%3BendArrow%3Dnone%3BendFill%3D0%3BentryX%3D0.5%3BentryY%3D1%3BentryDx%3D0%3BentryDy%3D0%3B%22%20edge%3D%221%22%20parent%3D%222%22%20source%3D%2216%22%20target%3D%2236%22%3E%3CmxGeometry%20relative%3D%221%22%20as%3D%22geometry%22%3E%3CmxPoint%20x%3D%22345%22%20y%3D%22338.8333333333335%22%20as%3D%22targetPoint%22%2F%3E%3C%2FmxGeometry%3E%3C%2FmxCell%3E%3CmxCell%20id%3D%2215%22%20style%3D%22edgeStyle%3DorthogonalEdgeStyle%3Bshape%3Dconnector%3Brounded%3D0%3BorthogonalLoop%3D1%3BjettySize%3Dauto%3Bhtml%3D1%3BexitX%3D0%3BexitY%3D0.75%3BexitDx%3D0%3BexitDy%3D0%3BexitPerimeter%3D0%3BstrokeColor%3Ddefault%3Balign%3Dcenter%3BverticalAlign%3Dmiddle%3BfontFamily%3DHelvetica%3BfontSize%3D11%3BfontColor%3Ddefault%3BlabelBackgroundColor%3Ddefault%3BendArrow%3Dnone%3BendFill%3D0%3B%22%20edge%3D%221%22%20parent%3D%222%22%20source%3D%2216%22%3E%3CmxGeometry%20relative%3D%221%22%20as%3D%22geometry%22%3E%3CmxPoint%20x%3D%22465%22%20y%3D%22368.8333333333335%22%20as%3D%22targetPoint%22%2F%3E%3C%2FmxGeometry%3E%3C%2FmxCell%3E%3CmxCell%20id%3D%2216%22%20value%3D%22%26lt%3Bp%20style%3D%26quot%3Bline-height%3A%20110%25%3B%26quot%3B%26gt%3B%26lt%3Bbr%26gt%3B%26lt%3B%2Fp%26gt%3B%22%20style%3D%22verticalLabelPosition%3Dbottom%3Bshadow%3D0%3Bdashed%3D0%3Balign%3Dcenter%3Bhtml%3D1%3BverticalAlign%3Dtop%3Bshape%3Dmxgraph.electrical.logic_gates.logic_gate%3Boperation%3Dand%3BspacingTop%3D-20%3B%22%20vertex%3D%221%22%20parent%3D%222%22%3E%3CmxGeometry%20x%3D%22485%22%20y%3D%22324%22%20width%3D%22100%22%20height%3D%2260%22%20as%3D%22geometry%22%2F%3E%3C%2FmxCell%3E%3CmxCell%20id%3D%2217%22%20style%3D%22rounded%3D0%3BorthogonalLoop%3D1%3BjettySize%3Dauto%3Bhtml%3D1%3BexitX%3D0%3BexitY%3D0.25%3BexitDx%3D0%3BexitDy%3D0%3BexitPerimeter%3D0%3BedgeStyle%3DorthogonalEdgeStyle%3BendArrow%3Dnone%3BendFill%3D0%3BentryX%3D0.5%3BentryY%3D1%3BentryDx%3D0%3BentryDy%3D0%3B%22%20edge%3D%221%22%20parent%3D%222%22%20source%3D%2219%22%20target%3D%2237%22%3E%3CmxGeometry%20relative%3D%221%22%20as%3D%22geometry%22%3E%3CmxPoint%20x%3D%22305%22%20y%3D%22110%22%20as%3D%22targetPoint%22%2F%3E%3C%2FmxGeometry%3E%3C%2FmxCell%3E%3CmxCell%20id%3D%2218%22%20style%3D%22edgeStyle%3DorthogonalEdgeStyle%3Bshape%3Dconnector%3Brounded%3D0%3BorthogonalLoop%3D1%3BjettySize%3Dauto%3Bhtml%3D1%3BexitX%3D0%3BexitY%3D0.75%3BexitDx%3D0%3BexitDy%3D0%3BexitPerimeter%3D0%3BstrokeColor%3Ddefault%3Balign%3Dcenter%3BverticalAlign%3Dmiddle%3BfontFamily%3DHelvetica%3BfontSize%3D11%3BfontColor%3Ddefault%3BlabelBackgroundColor%3Ddefault%3BendArrow%3Dnone%3BendFill%3D0%3B%22%20edge%3D%221%22%20parent%3D%222%22%20source%3D%2219%22%3E%3CmxGeometry%20relative%3D%221%22%20as%3D%22geometry%22%3E%3CmxPoint%20x%3D%22465%22%20y%3D%22438.8333333333335%22%20as%3D%22targetPoint%22%2F%3E%3C%2FmxGeometry%3E%3C%2FmxCell%3E%3CmxCell%20id%3D%2219%22%20value%3D%22%26lt%3Bp%20style%3D%26quot%3Bline-height%3A%20110%25%3B%26quot%3B%26gt%3B%26lt%3Bbr%26gt%3B%26lt%3B%2Fp%26gt%3B%22%20style%3D%22verticalLabelPosition%3Dbottom%3Bshadow%3D0%3Bdashed%3D0%3Balign%3Dcenter%3Bhtml%3D1%3BverticalAlign%3Dtop%3Bshape%3Dmxgraph.electrical.logic_gates.logic_gate%3Boperation%3Dand%3BspacingTop%3D-20%3B%22%20vertex%3D%221%22%20parent%3D%222%22%3E%3CmxGeometry%20x%3D%22485%22%20y%3D%22394%22%20width%3D%22100%22%20height%3D%2260%22%20as%3D%22geometry%22%2F%3E%3C%2FmxCell%3E%3CmxCell%20id%3D%2220%22%20style%3D%22edgeStyle%3DorthogonalEdgeStyle%3Brounded%3D0%3BorthogonalLoop%3D1%3BjettySize%3Dauto%3Bhtml%3D1%3BexitX%3D0%3BexitY%3D0.25%3BexitDx%3D0%3BexitDy%3D0%3BexitPerimeter%3D0%3BendArrow%3Dnone%3BendFill%3D0%3B%22%20edge%3D%221%22%20parent%3D%222%22%20source%3D%2222%22%3E%3CmxGeometry%20relative%3D%221%22%20as%3D%22geometry%22%3E%3CmxPoint%20x%3D%22265%22%20y%3D%22180%22%20as%3D%22targetPoint%22%2F%3E%3C%2FmxGeometry%3E%3C%2FmxCell%3E%3CmxCell%20id%3D%2221%22%20style%3D%22edgeStyle%3DorthogonalEdgeStyle%3Bshape%3Dconnector%3Brounded%3D0%3BorthogonalLoop%3D1%3BjettySize%3Dauto%3Bhtml%3D1%3BexitX%3D0%3BexitY%3D0.75%3BexitDx%3D0%3BexitDy%3D0%3BexitPerimeter%3D0%3BstrokeColor%3Ddefault%3Balign%3Dcenter%3BverticalAlign%3Dmiddle%3BfontFamily%3DHelvetica%3BfontSize%3D11%3BfontColor%3Ddefault%3BlabelBackgroundColor%3Ddefault%3BendArrow%3Dnone%3BendFill%3D0%3B%22%20edge%3D%221%22%20parent%3D%222%22%20source%3D%2222%22%3E%3CmxGeometry%20relative%3D%221%22%20as%3D%22geometry%22%3E%3CmxPoint%20x%3D%22465%22%20y%3D%22508.8333333333335%22%20as%3D%22targetPoint%22%2F%3E%3C%2FmxGeometry%3E%3C%2FmxCell%3E%3CmxCell%20id%3D%2222%22%20value%3D%22%26lt%3Bp%20style%3D%26quot%3Bline-height%3A%20110%25%3B%26quot%3B%26gt%3B%26lt%3Bbr%26gt%3B%26lt%3B%2Fp%26gt%3B%22%20style%3D%22verticalLabelPosition%3Dbottom%3Bshadow%3D0%3Bdashed%3D0%3Balign%3Dcenter%3Bhtml%3D1%3BverticalAlign%3Dtop%3Bshape%3Dmxgraph.electrical.logic_gates.logic_gate%3Boperation%3Dand%3BspacingTop%3D-20%3B%22%20vertex%3D%221%22%20parent%3D%222%22%3E%3CmxGeometry%20x%3D%22485%22%20y%3D%22464%22%20width%3D%22100%22%20height%3D%2260%22%20as%3D%22geometry%22%2F%3E%3C%2FmxCell%3E%3CmxCell%20id%3D%2223%22%20style%3D%22edgeStyle%3DorthogonalEdgeStyle%3Brounded%3D0%3BorthogonalLoop%3D1%3BjettySize%3Dauto%3Bhtml%3D1%3BexitX%3D0%3BexitY%3D0.25%3BexitDx%3D0%3BexitDy%3D0%3BexitPerimeter%3D0%3BendArrow%3Dnone%3BendFill%3D0%3B%22%20edge%3D%221%22%20parent%3D%222%22%20source%3D%2225%22%3E%3CmxGeometry%20relative%3D%221%22%20as%3D%22geometry%22%3E%3CmxPoint%20x%3D%22225%22%20y%3D%22250%22%20as%3D%22targetPoint%22%2F%3E%3C%2FmxGeometry%3E%3C%2FmxCell%3E%3CmxCell%20id%3D%2224%22%20style%3D%22edgeStyle%3DorthogonalEdgeStyle%3Bshape%3Dconnector%3Brounded%3D0%3BorthogonalLoop%3D1%3BjettySize%3Dauto%3Bhtml%3D1%3BexitX%3D0%3BexitY%3D0.75%3BexitDx%3D0%3BexitDy%3D0%3BexitPerimeter%3D0%3BstrokeColor%3Ddefault%3Balign%3Dcenter%3BverticalAlign%3Dmiddle%3BfontFamily%3DHelvetica%3BfontSize%3D11%3BfontColor%3Ddefault%3BlabelBackgroundColor%3Ddefault%3BendArrow%3Dnone%3BendFill%3D0%3B%22%20edge%3D%221%22%20parent%3D%222%22%20source%3D%2225%22%3E%3CmxGeometry%20relative%3D%221%22%20as%3D%22geometry%22%3E%3CmxPoint%20x%3D%22465%22%20y%3D%22578.8333333333335%22%20as%3D%22targetPoint%22%2F%3E%3C%2FmxGeometry%3E%3C%2FmxCell%3E%3CmxCell%20id%3D%2225%22%20value%3D%22%26lt%3Bp%20style%3D%26quot%3Bline-height%3A%20110%25%3B%26quot%3B%26gt%3B%26lt%3Bbr%26gt%3B%26lt%3B%2Fp%26gt%3B%22%20style%3D%22verticalLabelPosition%3Dbottom%3Bshadow%3D0%3Bdashed%3D0%3Balign%3Dcenter%3Bhtml%3D1%3BverticalAlign%3Dtop%3Bshape%3Dmxgraph.electrical.logic_gates.logic_gate%3Boperation%3Dand%3BspacingTop%3D-20%3B%22%20vertex%3D%221%22%20parent%3D%222%22%3E%3CmxGeometry%20x%3D%22485%22%20y%3D%22534%22%20width%3D%22100%22%20height%3D%2260%22%20as%3D%22geometry%22%2F%3E%3C%2FmxCell%3E%3CmxCell%20id%3D%2226%22%20value%3D%22%26lt%3Bp%26gt%3B%26lt%3Bfont%20style%3D%26quot%3Bfont-size%3A%2016px%3B%26quot%3B%20face%3D%26quot%3BHelvetica%26quot%3B%26gt%3Ba%5B0%5D%26lt%3B%2Ffont%26gt%3B%26lt%3B%2Fp%26gt%3B%22%20style%3D%22text%3Bhtml%3D1%3Balign%3Dcenter%3BverticalAlign%3Dmiddle%3Bresizable%3D0%3Bpoints%3D%5B%5D%3Bautosize%3D1%3BstrokeColor%3Dnone%3BfillColor%3Dnone%3B%22%20vertex%3D%221%22%20parent%3D%222%22%3E%3CmxGeometry%20x%3D%22578%22%20y%3D%2224%22%20width%3D%2250%22%20height%3D%2260%22%20as%3D%22geometry%22%2F%3E%3C%2FmxCell%3E%3CmxCell%20id%3D%2227%22%20value%3D%22%26lt%3Bp%26gt%3B%26lt%3Bfont%20style%3D%26quot%3Bfont-size%3A%2016px%3B%26quot%3B%20face%3D%26quot%3BHelvetica%26quot%3B%26gt%3Ba%5B1%26lt%3B%2Ffont%26gt%3B%26lt%3Bspan%20style%3D%26quot%3Bfont-size%3A%2016px%3B%20background-color%3A%20initial%3B%26quot%3B%26gt%3B%5D%26lt%3B%2Fspan%26gt%3B%26lt%3B%2Fp%26gt%3B%22%20style%3D%22text%3Bhtml%3D1%3Balign%3Dcenter%3BverticalAlign%3Dmiddle%3Bresizable%3D0%3Bpoints%3D%5B%5D%3Bautosize%3D1%3BstrokeColor%3Dnone%3BfillColor%3Dnone%3B%22%20vertex%3D%221%22%20parent%3D%222%22%3E%3CmxGeometry%20x%3D%22578%22%20y%3D%2294%22%20width%3D%2250%22%20height%3D%2260%22%20as%3D%22geometry%22%2F%3E%3C%2FmxCell%3E%3CmxCell%20id%3D%2228%22%20value%3D%22%26lt%3Bp%26gt%3B%26lt%3Bfont%20style%3D%26quot%3Bfont-size%3A%2016px%3B%26quot%3B%20face%3D%26quot%3BHelvetica%26quot%3B%26gt%3Ba%5B2%5D%26lt%3B%2Ffont%26gt%3B%26lt%3B%2Fp%26gt%3B%22%20style%3D%22text%3Bhtml%3D1%3Balign%3Dcenter%3BverticalAlign%3Dmiddle%3Bresizable%3D0%3Bpoints%3D%5B%5D%3Bautosize%3D1%3BstrokeColor%3Dnone%3BfillColor%3Dnone%3B%22%20vertex%3D%221%22%20parent%3D%222%22%3E%3CmxGeometry%20x%3D%22578%22%20y%3D%22164%22%20width%3D%2250%22%20height%3D%2260%22%20as%3D%22geometry%22%2F%3E%3C%2FmxCell%3E%3CmxCell%20id%3D%2229%22%20value%3D%22%26lt%3Bp%26gt%3B%26lt%3Bfont%20style%3D%26quot%3Bfont-size%3A%2016px%3B%26quot%3B%20face%3D%26quot%3BHelvetica%26quot%3B%26gt%3Ba%5B3%26lt%3B%2Ffont%26gt%3B%26lt%3Bspan%20style%3D%26quot%3Bfont-size%3A%2016px%3B%20background-color%3A%20initial%3B%26quot%3B%26gt%3B%5D%26lt%3B%2Fspan%26gt%3B%26lt%3B%2Fp%26gt%3B%22%20style%3D%22text%3Bhtml%3D1%3Balign%3Dcenter%3BverticalAlign%3Dmiddle%3Bresizable%3D0%3Bpoints%3D%5B%5D%3Bautosize%3D1%3BstrokeColor%3Dnone%3BfillColor%3Dnone%3B%22%20vertex%3D%221%22%20parent%3D%222%22%3E%3CmxGeometry%20x%3D%22578%22%20y%3D%22234%22%20width%3D%2250%22%20height%3D%2260%22%20as%3D%22geometry%22%2F%3E%3C%2FmxCell%3E%3CmxCell%20id%3D%2230%22%20value%3D%22%26lt%3Bp%26gt%3B%26lt%3Bfont%20style%3D%26quot%3Bfont-size%3A%2016px%3B%26quot%3B%20face%3D%26quot%3BHelvetica%26quot%3B%26gt%3Bb%5B0%5D%26lt%3B%2Ffont%26gt%3B%26lt%3B%2Fp%26gt%3B%22%20style%3D%22text%3Bhtml%3D1%3Balign%3Dcenter%3BverticalAlign%3Dmiddle%3Bresizable%3D0%3Bpoints%3D%5B%5D%3Bautosize%3D1%3BstrokeColor%3Dnone%3BfillColor%3Dnone%3B%22%20vertex%3D%221%22%20parent%3D%222%22%3E%3CmxGeometry%20x%3D%22578%22%20y%3D%22324%22%20width%3D%2250%22%20height%3D%2260%22%20as%3D%22geometry%22%2F%3E%3C%2FmxCell%3E%3CmxCell%20id%3D%2231%22%20value%3D%22%26lt%3Bp%26gt%3B%26lt%3Bfont%20style%3D%26quot%3Bfont-size%3A%2016px%3B%26quot%3B%20face%3D%26quot%3BHelvetica%26quot%3B%26gt%3Bb%5B1%26lt%3B%2Ffont%26gt%3B%26lt%3Bspan%20style%3D%26quot%3Bfont-size%3A%2016px%3B%20background-color%3A%20initial%3B%26quot%3B%26gt%3B%5D%26lt%3B%2Fspan%26gt%3B%26lt%3B%2Fp%26gt%3B%22%20style%3D%22text%3Bhtml%3D1%3Balign%3Dcenter%3BverticalAlign%3Dmiddle%3Bresizable%3D0%3Bpoints%3D%5B%5D%3Bautosize%3D1%3BstrokeColor%3Dnone%3BfillColor%3Dnone%3B%22%20vertex%3D%221%22%20parent%3D%222%22%3E%3CmxGeometry%20x%3D%22578%22%20y%3D%22394%22%20width%3D%2250%22%20height%3D%2260%22%20as%3D%22geometry%22%2F%3E%3C%2FmxCell%3E%3CmxCell%20id%3D%2232%22%20value%3D%22%26lt%3Bp%26gt%3B%26lt%3Bfont%20style%3D%26quot%3Bfont-size%3A%2016px%3B%26quot%3B%20face%3D%26quot%3BHelvetica%26quot%3B%26gt%3Bb%5B2%5D%26lt%3B%2Ffont%26gt%3B%26lt%3B%2Fp%26gt%3B%22%20style%3D%22text%3Bhtml%3D1%3Balign%3Dcenter%3BverticalAlign%3Dmiddle%3Bresizable%3D0%3Bpoints%3D%5B%5D%3Bautosize%3D1%3BstrokeColor%3Dnone%3BfillColor%3Dnone%3B%22%20vertex%3D%221%22%20parent%3D%222%22%3E%3CmxGeometry%20x%3D%22578%22%20y%3D%22464%22%20width%3D%2250%22%20height%3D%2260%22%20as%3D%22geometry%22%2F%3E%3C%2FmxCell%3E%3CmxCell%20id%3D%2233%22%20value%3D%22%26lt%3Bp%26gt%3B%26lt%3Bfont%20style%3D%26quot%3Bfont-size%3A%2016px%3B%26quot%3B%20face%3D%26quot%3BHelvetica%26quot%3B%26gt%3Bb%5B3%26lt%3B%2Ffont%26gt%3B%26lt%3Bspan%20style%3D%26quot%3Bfont-size%3A%2016px%3B%20background-color%3A%20initial%3B%26quot%3B%26gt%3B%5D%26lt%3B%2Fspan%26gt%3B%26lt%3B%2Fp%26gt%3B%22%20style%3D%22text%3Bhtml%3D1%3Balign%3Dcenter%3BverticalAlign%3Dmiddle%3Bresizable%3D0%3Bpoints%3D%5B%5D%3Bautosize%3D1%3BstrokeColor%3Dnone%3BfillColor%3Dnone%3B%22%20vertex%3D%221%22%20parent%3D%222%22%3E%3CmxGeometry%20x%3D%22578%22%20y%3D%22534%22%20width%3D%2250%22%20height%3D%2260%22%20as%3D%22geometry%22%2F%3E%3C%2FmxCell%3E%3CmxCell%20id%3D%2234%22%20value%3D%22%22%20style%3D%22edgeStyle%3DorthogonalEdgeStyle%3Brounded%3D0%3BorthogonalLoop%3D1%3BjettySize%3Dauto%3Bhtml%3D1%3BexitX%3D0%3BexitY%3D0.25%3BexitDx%3D0%3BexitDy%3D0%3BexitPerimeter%3D0%3BendArrow%3Dnone%3BendFill%3D0%3B%22%20edge%3D%221%22%20parent%3D%222%22%20source%3D%224%22%20target%3D%2236%22%3E%3CmxGeometry%20relative%3D%221%22%20as%3D%22geometry%22%3E%3CmxPoint%20x%3D%2285%22%20y%3D%2239%22%20as%3D%22targetPoint%22%2F%3E%3CmxPoint%20x%3D%22485%22%20y%3D%2239%22%20as%3D%22sourcePoint%22%2F%3E%3C%2FmxGeometry%3E%3C%2FmxCell%3E%3CmxCell%20id%3D%2235%22%20style%3D%22edgeStyle%3DorthogonalEdgeStyle%3Bshape%3Dconnector%3Brounded%3D0%3BorthogonalLoop%3D1%3BjettySize%3Dauto%3Bhtml%3D1%3BexitX%3D0%3BexitY%3D0.5%3BexitDx%3D0%3BexitDy%3D0%3BstrokeColor%3Ddefault%3Balign%3Dcenter%3BverticalAlign%3Dmiddle%3BfontFamily%3DHelvetica%3BfontSize%3D11%3BfontColor%3Ddefault%3BlabelBackgroundColor%3Ddefault%3BendArrow%3Dnone%3BendFill%3D0%3B%22%20edge%3D%221%22%20parent%3D%222%22%20source%3D%2236%22%3E%3CmxGeometry%20relative%3D%221%22%20as%3D%22geometry%22%3E%3CmxPoint%20x%3D%2285%22%20y%3D%2239%22%20as%3D%22targetPoint%22%2F%3E%3C%2FmxGeometry%3E%3C%2FmxCell%3E%3CmxCell%20id%3D%2236%22%20value%3D%22%22%20style%3D%22shape%3Dellipse%3BfillColor%3D%23000000%3BstrokeColor%3Dnone%3Bhtml%3D1%3Bsketch%3D0%3BfontFamily%3DHelvetica%3BfontSize%3D11%3BfontColor%3Ddefault%3BlabelBackgroundColor%3Ddefault%3B%22%20vertex%3D%221%22%20parent%3D%222%22%3E%3CmxGeometry%20x%3D%22340%22%20y%3D%2234%22%20width%3D%2210%22%20height%3D%2210%22%20as%3D%22geometry%22%2F%3E%3C%2FmxCell%3E%3CmxCell%20id%3D%2237%22%20value%3D%22%22%20style%3D%22shape%3Dellipse%3BfillColor%3D%23000000%3BstrokeColor%3Dnone%3Bhtml%3D1%3Bsketch%3D0%3BfontFamily%3DHelvetica%3BfontSize%3D11%3BfontColor%3Ddefault%3BlabelBackgroundColor%3Ddefault%3B%22%20vertex%3D%221%22%20parent%3D%222%22%3E%3CmxGeometry%20x%3D%22300%22%20y%3D%22103%22%20width%3D%2210%22%20height%3D%2210%22%20as%3D%22geometry%22%2F%3E%3C%2FmxCell%3E%3CmxCell%20id%3D%2238%22%20value%3D%22%22%20style%3D%22shape%3Dellipse%3BfillColor%3D%23000000%3BstrokeColor%3Dnone%3Bhtml%3D1%3Bsketch%3D0%3BfontFamily%3DHelvetica%3BfontSize%3D11%3BfontColor%3Ddefault%3BlabelBackgroundColor%3Ddefault%3B%22%20vertex%3D%221%22%20parent%3D%222%22%3E%3CmxGeometry%20x%3D%22260%22%20y%3D%22174%22%20width%3D%2210%22%20height%3D%2210%22%20as%3D%22geometry%22%2F%3E%3C%2FmxCell%3E%3CmxCell%20id%3D%2239%22%20value%3D%22%22%20style%3D%22shape%3Dellipse%3BfillColor%3D%23000000%3BstrokeColor%3Dnone%3Bhtml%3D1%3Bsketch%3D0%3BfontFamily%3DHelvetica%3BfontSize%3D11%3BfontColor%3Ddefault%3BlabelBackgroundColor%3Ddefault%3B%22%20vertex%3D%221%22%20parent%3D%222%22%3E%3CmxGeometry%20x%3D%22220%22%20y%3D%22243%22%20width%3D%2210%22%20height%3D%2210%22%20as%3D%22geometry%22%2F%3E%3C%2FmxCell%3E%3CmxCell%20id%3D%2240%22%20value%3D%22%22%20style%3D%22endArrow%3Dnone%3Bhtml%3D1%3Brounded%3D0%3BstrokeColor%3Ddefault%3Balign%3Dcenter%3BverticalAlign%3Dmiddle%3BfontFamily%3DHelvetica%3BfontSize%3D11%3BfontColor%3Ddefault%3BlabelBackgroundColor%3Ddefault%3BedgeStyle%3DorthogonalEdgeStyle%3B%22%20edge%3D%221%22%20parent%3D%222%22%3E%3CmxGeometry%20width%3D%2250%22%20height%3D%2250%22%20relative%3D%221%22%20as%3D%22geometry%22%3E%3CmxPoint%20x%3D%2285%22%20y%3D%22620%22%20as%3D%22sourcePoint%22%2F%3E%3CmxPoint%20x%3D%22465%22%20y%3D%22370%22%20as%3D%22targetPoint%22%2F%3E%3C%2FmxGeometry%3E%3C%2FmxCell%3E%3CmxCell%20id%3D%2241%22%20value%3D%22%22%20style%3D%22endArrow%3Dnone%3Bhtml%3D1%3Brounded%3D0%3BstrokeColor%3Ddefault%3Balign%3Dcenter%3BverticalAlign%3Dmiddle%3BfontFamily%3DHelvetica%3BfontSize%3D11%3BfontColor%3Ddefault%3BlabelBackgroundColor%3Ddefault%3BedgeStyle%3DorthogonalEdgeStyle%3B%22%20edge%3D%221%22%20parent%3D%222%22%3E%3CmxGeometry%20width%3D%2250%22%20height%3D%2250%22%20relative%3D%221%22%20as%3D%22geometry%22%3E%3CmxPoint%20x%3D%22145%22%20y%3D%22620%22%20as%3D%22sourcePoint%22%2F%3E%3CmxPoint%20x%3D%22465%22%20y%3D%2270%22%20as%3D%22targetPoint%22%2F%3E%3CArray%20as%3D%22points%22%3E%3CmxPoint%20x%3D%22145%22%20y%3D%22300%22%2F%3E%3C%2FArray%3E%3C%2FmxGeometry%3E%3C%2FmxCell%3E%3CmxCell%20id%3D%2242%22%20value%3D%22%22%20style%3D%22verticalLabelPosition%3Dbottom%3Bshadow%3D0%3Bdashed%3D0%3Balign%3Dcenter%3Bhtml%3D1%3BverticalAlign%3Dtop%3Bshape%3Dmxgraph.electrical.logic_gates.inverter_2%3BfontFamily%3DHelvetica%3BfontSize%3D11%3BfontColor%3Ddefault%3BlabelBackgroundColor%3Ddefault%3Brotation%3D-90%3B%22%20vertex%3D%221%22%20parent%3D%222%22%3E%3CmxGeometry%20x%3D%2295%22%20y%3D%22420%22%20width%3D%22100%22%20height%3D%2260%22%20as%3D%22geometry%22%2F%3E%3C%2FmxCell%3E%3CmxCell%20id%3D%2243%22%20value%3D%22%22%20style%3D%22shape%3Dellipse%3BfillColor%3D%23000000%3BstrokeColor%3Dnone%3Bhtml%3D1%3Bsketch%3D0%3BfontFamily%3DHelvetica%3BfontSize%3D11%3BfontColor%3Ddefault%3BlabelBackgroundColor%3Ddefault%3B%22%20vertex%3D%221%22%20parent%3D%222%22%3E%3CmxGeometry%20x%3D%22460%22%20y%3D%22134%22%20width%3D%2210%22%20height%3D%2210%22%20as%3D%22geometry%22%2F%3E%3C%2FmxCell%3E%3CmxCell%20id%3D%2244%22%20value%3D%22%22%20style%3D%22shape%3Dellipse%3BfillColor%3D%23000000%3BstrokeColor%3Dnone%3Bhtml%3D1%3Bsketch%3D0%3BfontFamily%3DHelvetica%3BfontSize%3D11%3BfontColor%3Ddefault%3BlabelBackgroundColor%3Ddefault%3B%22%20vertex%3D%221%22%20parent%3D%222%22%3E%3CmxGeometry%20x%3D%22461%22%20y%3D%22204%22%20width%3D%2210%22%20height%3D%2210%22%20as%3D%22geometry%22%2F%3E%3C%2FmxCell%3E%3CmxCell%20id%3D%2245%22%20value%3D%22%22%20style%3D%22shape%3Dellipse%3BfillColor%3D%23000000%3BstrokeColor%3Dnone%3Bhtml%3D1%3Bsketch%3D0%3BfontFamily%3DHelvetica%3BfontSize%3D11%3BfontColor%3Ddefault%3BlabelBackgroundColor%3Ddefault%3B%22%20vertex%3D%221%22%20parent%3D%222%22%3E%3CmxGeometry%20x%3D%22460%22%20y%3D%22274%22%20width%3D%2210%22%20height%3D%2210%22%20as%3D%22geometry%22%2F%3E%3C%2FmxCell%3E%3CmxCell%20id%3D%2246%22%20value%3D%22%22%20style%3D%22shape%3Dellipse%3BfillColor%3D%23000000%3BstrokeColor%3Dnone%3Bhtml%3D1%3Bsketch%3D0%3BfontFamily%3DHelvetica%3BfontSize%3D11%3BfontColor%3Ddefault%3BlabelBackgroundColor%3Ddefault%3B%22%20vertex%3D%221%22%20parent%3D%222%22%3E%3CmxGeometry%20x%3D%22461%22%20y%3D%22434%22%20width%3D%2210%22%20height%3D%2210%22%20as%3D%22geometry%22%2F%3E%3C%2FmxCell%3E%3CmxCell%20id%3D%2247%22%20value%3D%22%22%20style%3D%22shape%3Dellipse%3BfillColor%3D%23000000%3BstrokeColor%3Dnone%3Bhtml%3D1%3Bsketch%3D0%3BfontFamily%3DHelvetica%3BfontSize%3D11%3BfontColor%3Ddefault%3BlabelBackgroundColor%3Ddefault%3B%22%20vertex%3D%221%22%20parent%3D%222%22%3E%3CmxGeometry%20x%3D%22462%22%20y%3D%22504%22%20width%3D%2210%22%20height%3D%2210%22%20as%3D%22geometry%22%2F%3E%3C%2FmxCell%3E%3CmxCell%20id%3D%2248%22%20value%3D%22%22%20style%3D%22shape%3Dellipse%3BfillColor%3D%23000000%3BstrokeColor%3Dnone%3Bhtml%3D1%3Bsketch%3D0%3BfontFamily%3DHelvetica%3BfontSize%3D11%3BfontColor%3Ddefault%3BlabelBackgroundColor%3Ddefault%3B%22%20vertex%3D%221%22%20parent%3D%222%22%3E%3CmxGeometry%20x%3D%22461%22%20y%3D%22574%22%20width%3D%2210%22%20height%3D%2210%22%20as%3D%22geometry%22%2F%3E%3C%2FmxCell%3E%3CmxCell%20id%3D%2249%22%20value%3D%22%26lt%3Bp%26gt%3B%26lt%3Bfont%20style%3D%26quot%3Bfont-size%3A%2016px%3B%26quot%3B%20face%3D%26quot%3BHelvetica%26quot%3B%26gt%3Bin%5B0%5D%26lt%3B%2Ffont%26gt%3B%26lt%3B%2Fp%26gt%3B%22%20style%3D%22text%3Bhtml%3D1%3Balign%3Dcenter%3BverticalAlign%3Dmiddle%3Bresizable%3D0%3Bpoints%3D%5B%5D%3Bautosize%3D1%3BstrokeColor%3Dnone%3BfillColor%3Dnone%3B%22%20vertex%3D%221%22%20parent%3D%222%22%3E%3CmxGeometry%20x%3D%2235%22%20y%3D%229%22%20width%3D%2250%22%20height%3D%2260%22%20as%3D%22geometry%22%2F%3E%3C%2FmxCell%3E%3CmxCell%20id%3D%2250%22%20value%3D%22%26lt%3Bp%26gt%3B%26lt%3Bfont%20style%3D%26quot%3Bfont-size%3A%2016px%3B%26quot%3B%20face%3D%26quot%3BHelvetica%26quot%3B%26gt%3Bin%5B1%5D%26lt%3B%2Ffont%26gt%3B%26lt%3B%2Fp%26gt%3B%22%20style%3D%22text%3Bhtml%3D1%3Balign%3Dcenter%3BverticalAlign%3Dmiddle%3Bresizable%3D0%3Bpoints%3D%5B%5D%3Bautosize%3D1%3BstrokeColor%3Dnone%3BfillColor%3Dnone%3B%22%20vertex%3D%221%22%20parent%3D%222%22%3E%3CmxGeometry%20x%3D%2235%22%20y%3D%2278%22%20width%3D%2250%22%20height%3D%2260%22%20as%3D%22geometry%22%2F%3E%3C%2FmxCell%3E%3CmxCell%20id%3D%2251%22%20value%3D%22%26lt%3Bp%26gt%3B%26lt%3Bfont%20style%3D%26quot%3Bfont-size%3A%2016px%3B%26quot%3B%20face%3D%26quot%3BHelvetica%26quot%3B%26gt%3Bin%5B2%5D%26lt%3B%2Ffont%26gt%3B%26lt%3B%2Fp%26gt%3B%22%20style%3D%22text%3Bhtml%3D1%3Balign%3Dcenter%3BverticalAlign%3Dmiddle%3Bresizable%3D0%3Bpoints%3D%5B%5D%3Bautosize%3D1%3BstrokeColor%3Dnone%3BfillColor%3Dnone%3B%22%20vertex%3D%221%22%20parent%3D%222%22%3E%3CmxGeometry%20x%3D%2235%22%20y%3D%22149%22%20width%3D%2250%22%20height%3D%2260%22%20as%3D%22geometry%22%2F%3E%3C%2FmxCell%3E%3CmxCell%20id%3D%2252%22%20value%3D%22%26lt%3Bp%26gt%3B%26lt%3Bfont%20style%3D%26quot%3Bfont-size%3A%2016px%3B%26quot%3B%20face%3D%26quot%3BHelvetica%26quot%3B%26gt%3Bin%5B3%5D%26lt%3B%2Ffont%26gt%3B%26lt%3B%2Fp%26gt%3B%22%20style%3D%22text%3Bhtml%3D1%3Balign%3Dcenter%3BverticalAlign%3Dmiddle%3Bresizable%3D0%3Bpoints%3D%5B%5D%3Bautosize%3D1%3BstrokeColor%3Dnone%3BfillColor%3Dnone%3B%22%20vertex%3D%221%22%20parent%3D%222%22%3E%3CmxGeometry%20x%3D%2235%22%20y%3D%22218%22%20width%3D%2250%22%20height%3D%2260%22%20as%3D%22geometry%22%2F%3E%3C%2FmxCell%3E%3CmxCell%20id%3D%2253%22%20value%3D%22%26lt%3Bp%26gt%3B%26lt%3Bspan%20style%3D%26quot%3Bfont-size%3A%2016px%3B%26quot%3B%26gt%3Bsel%26lt%3B%2Fspan%26gt%3B%26lt%3B%2Fp%26gt%3B%22%20style%3D%22text%3Bhtml%3D1%3Balign%3Dcenter%3BverticalAlign%3Dmiddle%3Bresizable%3D0%3Bpoints%3D%5B%5D%3Bautosize%3D1%3BstrokeColor%3Dnone%3BfillColor%3Dnone%3B%22%20vertex%3D%221%22%20parent%3D%222%22%3E%3CmxGeometry%20x%3D%2240%22%20y%3D%22589%22%20width%3D%2240%22%20height%3D%2260%22%20as%3D%22geometry%22%2F%3E%3C%2FmxCell%3E%3CmxCell%20id%3D%2254%22%20value%3D%22%22%20style%3D%22rounded%3D0%3BwhiteSpace%3Dwrap%3Bhtml%3D1%3BfontFamily%3DHelvetica%3BfontSize%3D11%3BfontColor%3Ddefault%3BlabelBackgroundColor%3Ddefault%3BfillColor%3Dnone%3B%22%20vertex%3D%221%22%20parent%3D%222%22%3E%3CmxGeometry%20width%3D%22655%22%20height%3D%22660%22%20as%3D%22geometry%22%2F%3E%3C%2FmxCell%3E%3C%2Froot%3E%3C%2FmxGraphModel%3E&lt;/span&gt;" style="rounded=0;whiteSpace=wrap;html=1;fontFamily=Helvetica;fontSize=11;fontColor=default;labelBackgroundColor=default;fillColor=none;" vertex="1" parent="1">
          <mxGeometry x="40" y="40" width="700" height="860" as="geometry" />
        </mxCell>
        <mxCell id="DTpgtTUkMBl5S_0WbIt8-2" value="&lt;div style=&quot;color: rgb(248, 248, 242); background-color: rgb(38, 41, 44); font-family: &amp;quot;Fira Code&amp;quot;, Consolas, &amp;quot;Courier New&amp;quot;, monospace, Menlo, Monaco, &amp;quot;Courier New&amp;quot;, monospace; font-size: 16px; line-height: 24px; white-space-collapse: preserve;&quot;&gt;CLG_4bit&lt;/div&gt;" style="text;html=1;align=center;verticalAlign=middle;resizable=0;points=[];autosize=1;strokeColor=none;fillColor=none;" vertex="1" parent="1">
          <mxGeometry x="10" width="100" height="40" as="geometry" />
        </mxCell>
      </root>
    </mxGraphModel>
  </diagram>
</mxfile>
